<?xml version="1.0" standalone="no"?><svg xmlns="http://www.w3.org/2000/svg" viewBox="0 0 1440 320"><path fill="#212121" fill-opacity="1" d="M0,0L26.7,5.3C53.3,11,107,21,160,37.3C213.3,53,267,75,320,106.7C373.3,139,427,181,480,181.3C533.3,181,587,139,640,128C693.3,117,747,139,800,149.3C853.3,160,907,160,960,144C1013.3,128,1067,96,1120,106.7C1173.3,117,1227,171,1280,170.7C1333.3,171,1387,117,1413,90.7L1440,64L1440,320L1413.3,320C1386.7,320,1333,320,1280,320C1226.7,320,1173,320,1120,320C1066.7,320,1013,320,960,320C906.7,320,853,320,800,320C746.7,320,693,320,640,320C586.7,320,533,320,480,320C426.7,320,373,320,320,320C266.7,320,213,320,160,320C106.7,320,53,320,27,320L0,320Z"></path></svg>